<svg xmlns="http://www.w3.org/2000/svg" width="250.873" height="226.513" viewBox="0 0 250.873 226.513">
  <g id="To_do_list-rafiki" data-name="To do list-rafiki" transform="translate(-56.11 -77.715)">
    <g id="freepik--background-simple--inject-31" transform="translate(67.082 78.23)">
      <path id="Path_6" data-name="Path 6" d="M183.394,239.41c-54.628-8-116.347-33.363-109.852-95.554,5.9-56.427,69.56-85.184,119.731-50.714,21.634,14.88,25.606,40.958,50.138,52.849s60.166,12.855,60.289,48.683C303.856,250.169,219.345,244.677,183.394,239.41Z" transform="translate(-73.07 -78.23)" fill="#f2d3ed"/>
      <path id="Path_7" data-name="Path 7" d="M183.394,239.41c-54.628-8-116.347-33.363-109.852-95.554,5.9-56.427,69.56-85.184,119.731-50.714,21.634,14.88,25.606,40.958,50.138,52.849s60.166,12.855,60.289,48.683C303.856,250.169,219.345,244.677,183.394,239.41Z" transform="translate(-73.07 -78.23)" fill="#fff" stroke="#f2d3ed" stroke-width="1" opacity="0.9"/>
    </g>
    <g id="freepik--Shadow--inject-31" transform="translate(56.11 289.581)">
      <ellipse id="freepik--path--inject-31" cx="125.437" cy="7.323" rx="125.437" ry="7.323" fill="#f2d3ed"/>
    </g>
    <g id="freepik--to-do-list--inject-31" transform="translate(159.161 104.857)">
      <path id="Path_8" data-name="Path 8" d="M232.267,129.51h106.52a3.843,3.843,0,0,1,3.882,4.128L333.98,273.592a4.47,4.47,0,0,1-4.386,4.134H223.067a3.882,3.882,0,0,1-3.882-4.134l8.682-139.954A4.477,4.477,0,0,1,232.267,129.51Z" transform="translate(-216.732 -122.961)" fill="#f2d3ed"/>
      <path id="Path_9" data-name="Path 9" d="M232.267,129.51h106.52a3.843,3.843,0,0,1,3.882,4.128L333.98,273.592a4.47,4.47,0,0,1-4.386,4.134H223.067a3.882,3.882,0,0,1-3.882-4.134l8.682-139.954A4.477,4.477,0,0,1,232.267,129.51Z" transform="translate(-216.732 -122.961)" opacity="0.4"/>
      <path id="Path_10" data-name="Path 10" d="M228.487,129.51h106.52a3.843,3.843,0,0,1,3.882,4.128L330.2,273.592a4.47,4.47,0,0,1-4.393,4.134H219.287a3.882,3.882,0,0,1-3.882-4.134l8.682-139.954A4.47,4.47,0,0,1,228.487,129.51Z" transform="translate(-215.397 -122.961)" fill="#f2d3ed"/>
      <path id="Path_11" data-name="Path 11" d="M224.34,273.636l103.686,1.242,8.41-135.548H232.673Z" transform="translate(-218.555 -126.429)" opacity="0.4"/>
      <path id="Path_12" data-name="Path 12" d="M219.66,271.375H324.686c5.784-52.991,7.563-81.6,8.352-134.565H228.012C227.223,189.776,225.45,218.384,219.66,271.375Z" transform="translate(-216.902 -125.539)" fill="#fff"/>
      <path id="Path_13" data-name="Path 13" d="M364.894,182.428H346.812a1.294,1.294,0,0,1-.97-.42,1.346,1.346,0,0,1-.362-1l1.119-18.076a1.339,1.339,0,0,1,1.333-1.255h18.115a1.339,1.339,0,0,1,1.333,1.417l-1.126,18.082a1.294,1.294,0,0,1-1.359,1.249Zm-16.659-2.665h15.4l.938-15.41H349.186Z" transform="translate(-261.322 -134.319)" fill="#f2d3ed" opacity="0.3"/>
      <path id="Path_14" data-name="Path 14" d="M362.247,225H344.171a1.339,1.339,0,0,1-1.333-1.417l1.119-18.082a1.333,1.333,0,0,1,1.333-1.249h18.082a1.294,1.294,0,0,1,.97.42,1.346,1.346,0,0,1,.362,1l-1.126,18.076A1.333,1.333,0,0,1,362.247,225Zm-16.659-2.672h15.4l.958-15.41h-15.4Z" transform="translate(-260.39 -149.349)" fill="#f2d3ed" opacity="0.3"/>
      <path id="Path_15" data-name="Path 15" d="M359.606,267.558H341.531a1.332,1.332,0,0,1-.977-.421,1.294,1.294,0,0,1-.356-1l1.119-18.076a1.339,1.339,0,0,1,1.333-1.255h18.082a1.34,1.34,0,0,1,.97.421,1.365,1.365,0,0,1,.362,1l-1.126,18.115A1.333,1.333,0,0,1,359.606,267.558Zm-16.659-2.665h15.4l.958-15.41H343.9Z" transform="translate(-259.457 -164.375)" fill="#f2d3ed" opacity="0.3"/>
      <path id="Path_16" data-name="Path 16" d="M356.966,310.128H338.891a1.358,1.358,0,0,1-.977-.42,1.294,1.294,0,0,1-.356-1l1.119-18.082a1.339,1.339,0,0,1,1.333-1.249h18.082a1.294,1.294,0,0,1,.97.421,1.346,1.346,0,0,1,.362,1L358.3,308.873A1.339,1.339,0,0,1,356.966,310.128Zm-16.659-2.672h15.4l.958-15.41h-15.4Z" transform="translate(-258.525 -179.404)" fill="#f2d3ed" opacity="0.3"/>
      <path id="Path_17" data-name="Path 17" d="M258.722,171.6h40.945a2.445,2.445,0,0,0,2.4-2.258h0a2.1,2.1,0,0,0-2.122-2.258H259.007a2.432,2.432,0,0,0-2.4,2.258h0a2.1,2.1,0,0,0,2.116,2.258Z" transform="translate(-229.944 -136.226)" fill="#f2d3ed" opacity="0.3"/>
      <path id="Path_18" data-name="Path 18" d="M269.849,185.892h33.156a2.445,2.445,0,0,0,2.4-2.258h0a2.1,2.1,0,0,0-2.115-2.264H270.147a2.445,2.445,0,0,0-2.4,2.264h0a2.1,2.1,0,0,0,2.1,2.258Z" transform="translate(-233.877 -141.271)" fill="#f2d3ed" opacity="0.3"/>
      <path id="Path_19" data-name="Path 19" d="M255.477,223.94h40.945a2.1,2.1,0,0,1,2.115,2.258h0a2.445,2.445,0,0,1-2.4,2.258H255.192a2.1,2.1,0,0,1-2.116-2.258h0A2.445,2.445,0,0,1,255.477,223.94Z" transform="translate(-228.698 -156.3)" fill="#f2d3ed" opacity="0.3"/>
      <path id="Path_20" data-name="Path 20" d="M268.4,209.64h33.182A2.1,2.1,0,0,1,303.7,211.9h0a2.445,2.445,0,0,1-2.4,2.264H268.119A2.1,2.1,0,0,1,266,211.9h0A2.445,2.445,0,0,1,268.4,209.64Z" transform="translate(-233.259 -151.252)" fill="#f2d3ed" opacity="0.3"/>
      <path id="Path_21" data-name="Path 21" d="M253.428,256.726h40.945a2.445,2.445,0,0,0,2.4-2.258h0a2.1,2.1,0,0,0-2.122-2.258H253.687a2.445,2.445,0,0,0-2.4,2.258h0a2.1,2.1,0,0,0,2.141,2.258Z" transform="translate(-228.066 -166.281)" fill="#f2d3ed" opacity="0.3"/>
      <path id="Path_22" data-name="Path 22" d="M290.389,271.022h16.471a2.445,2.445,0,0,0,2.4-2.258h0a2.109,2.109,0,0,0-2.122-2.264H290.687a2.452,2.452,0,0,0-2.4,2.264h0a2.1,2.1,0,0,0,2.1,2.258Z" transform="translate(-241.129 -171.326)" fill="#f2d3ed" opacity="0.3"/>
      <path id="Path_23" data-name="Path 23" d="M264.589,271.022h8.689a2.445,2.445,0,0,0,2.4-2.258h0a2.109,2.109,0,0,0-2.122-2.264h-8.689a2.452,2.452,0,0,0-2.4,2.264h0a2.1,2.1,0,0,0,2.122,2.258Z" transform="translate(-232.013 -171.326)" fill="#f2d3ed" opacity="0.3"/>
      <path id="Path_24" data-name="Path 24" d="M250.825,299.292H291.77a2.446,2.446,0,0,0,2.4-2.258h0a2.109,2.109,0,0,0-2.122-2.264H251.077a2.446,2.446,0,0,0-2.4,2.264h0a2.1,2.1,0,0,0,2.148,2.258Z" transform="translate(-227.145 -181.307)" fill="#f2d3ed" opacity="0.3"/>
      <path id="Path_25" data-name="Path 25" d="M261.949,313.592H295.1a2.452,2.452,0,0,0,2.4-2.264h0a2.1,2.1,0,0,0-2.122-2.258H262.227a2.445,2.445,0,0,0-2.4,2.258h0a2.109,2.109,0,0,0,2.122,2.264Z" transform="translate(-231.081 -186.356)" fill="#f2d3ed" opacity="0.3"/>
      <path id="Path_26" data-name="Path 26" d="M355.62,177.768a1.294,1.294,0,0,1-.751-.233L347.9,172.78a1.339,1.339,0,0,1,1.507-2.206l5.952,4.069c2.174-2.62,8.372-9.7,13.528-12.027a1.335,1.335,0,1,1,1.087,2.439c-5.628,2.5-13.23,12.111-13.3,12.208A1.346,1.346,0,0,1,355.62,177.768Z" transform="translate(-261.999 -134.609)" fill="#f2d3ed"/>
      <path id="Path_27" data-name="Path 27" d="M351.057,220.721a1.352,1.352,0,0,1-.932-.369l-6.062-5.823a1.343,1.343,0,0,1,1.857-1.941l5.176,4.975c2.555-2.284,9.7-8.365,15.113-9.84a1.341,1.341,0,0,1,.705,2.588c-5.9,1.611-14.834,9.982-14.925,10.067A1.294,1.294,0,0,1,351.057,220.721Z" transform="translate(-260.677 -150.558)" fill="#f2d3ed"/>
      <path id="Path_28" data-name="Path 28" d="M337.355,137.405H339.3a3.959,3.959,0,0,0,4-3.921v-3.61a.395.395,0,0,0-.4-.395h-5.486a.453.453,0,0,0-.446.446l.026,7.084A.4.4,0,0,0,337.355,137.405Z" transform="translate(-258.315 -122.951)" opacity="0.4"/>
      <path id="Path_29" data-name="Path 29" d="M288.669,119.389H321.7a3.189,3.189,0,0,1,3.235,3.726l-.99,7.356a4.419,4.419,0,0,1-4.231,3.726H286.67a3.19,3.19,0,0,1-3.235-3.726l1-7.356A4.419,4.419,0,0,1,288.669,119.389Z" transform="translate(-239.402 -119.388)" fill="#f2d3ed"/>
      <path id="Path_30" data-name="Path 30" d="M288.669,119.389H321.7a3.189,3.189,0,0,1,3.235,3.726l-.99,7.356a4.419,4.419,0,0,1-4.231,3.726H286.67a3.19,3.19,0,0,1-3.235-3.726l1-7.356A4.419,4.419,0,0,1,288.669,119.389Z" transform="translate(-239.402 -119.388)" fill="#fff" opacity="0.6"/>
      <path id="Path_31" data-name="Path 31" d="M332.579,123.8H317.7a1,1,0,1,1,0-2h14.88a1,1,0,0,1,0,2Z" transform="translate(-251.133 -120.238)" fill="#fff" opacity="0.5"/>
      <path id="Path_32" data-name="Path 32" d="M309.194,123.8h-1.566a1,1,0,1,1,0-2h1.566a1,1,0,1,1,0,2Z" transform="translate(-247.577 -120.238)" fill="#fff" opacity="0.5"/>
    </g>
  </g>
</svg>
